# xmcd CD database file
#
# Track frame offsets:
#	150
#	14500
#	26588
#	41128
#	54255
#	68818
#	83348
#	96008
#	108565
#	122568
#	137148
#	149398
#	161845
#	174578
#	188635
#	200988
#	214753
#	228023
#	240480
#	252628
#	264820
#	278878
#	291868
#	307210
#
# Disc length: 4272 seconds
#
# Revision: 1
# Processed by: cddbd v1.5.2PL0 Copyright (c) Steve Scherf et al.
# Submitted via: CDex 1.51
#
DISCID=5f10ae18
DTITLE=Johnny Todds - Vol. 077 - The Myth of New Orleans
DYEAR=1990
DGENRE=Jazz
TTITLE0=Wild Man Blues
TTITLE1=Melancholy
TTITLE2=Heah' Me Talkin'
TTITLE3=Bull Fiddle Blues
TTITLE4=Blue Clarinet Stomp
TTITLE5=Bucktown Stomp
TTITLE6=Get' Em Again BLues
TTITLE7=Lady Love
TTITLE8=Waery Way Blues
TTITLE9=After You've Gone
TTITLE10=Carpet Alley-Breakdown
TTITLE11=Gravier Street Stomp
TTITLE12=Weary City
TTITLE13=Perdido Street Blues
TTITLE14=Oriental Man
TTITLE15=Gatemouth
TTITLE16=My Baby
TTITLE17=New Orleans Stomp
TTITLE18=Ballin' The Jack
TTITLE19=Grandma's Ball
TTITLE20=Indigo Stomp
TTITLE21=Pencil Papa
TTITLE22=Flat Foot
TTITLE23=Too Tight
EXTD=YEAR: 1990
EXTT0=
EXTT1=
EXTT2=
EXTT3=\n
EXTT4=
EXTT5=
EXTT6=
EXTT7=
EXTT8=
EXTT9=
EXTT10=
EXTT11=
EXTT12=
EXTT13=
EXTT14=
EXTT15=
EXTT16=
EXTT17=
EXTT18=
EXTT19=
EXTT20=
EXTT21=
EXTT22=
EXTT23=
PLAYORDER=
